<svg xmlns="http://www.w3.org/2000/svg" xmlns:xlink="http://www.w3.org/1999/xlink" width="48" zoomAndPan="magnify" viewBox="0 0 36 36.000001" height="48" preserveAspectRatio="xMidYMid meet" version="1.0"><defs><clipPath id="fb86d82e0a"><path d="M 0.488281 0 L 35.511719 0 L 35.511719 35.027344 L 0.488281 35.027344 Z M 0.488281 0 " clip-rule="nonzero"/></clipPath></defs><g clip-path="url(#fb86d82e0a)"><path fill="#ffffff" d="M 0.488281 0 L 35.511719 0 L 35.511719 42.324219 L 0.488281 42.324219 Z M 0.488281 0 " fill-opacity="1" fill-rule="nonzero"/><path fill="#ffffff" d="M 0.488281 0 L 35.511719 0 L 35.511719 35.027344 L 0.488281 35.027344 Z M 0.488281 0 " fill-opacity="1" fill-rule="nonzero"/><path fill="#ffffff" d="M 0.488281 0 L 35.511719 0 L 35.511719 35.027344 L 0.488281 35.027344 Z M 0.488281 0 " fill-opacity="1" fill-rule="nonzero"/><path fill="#1b1b32" d="M 30.382812 5.128906 C 27.074219 1.820312 22.675781 0 18 0 C 13.320312 0 8.921875 1.820312 5.617188 5.128906 C 2.308594 8.4375 0.488281 12.835938 0.488281 17.511719 C 0.488281 22.191406 2.308594 26.589844 5.617188 29.898438 C 8.921875 33.203125 13.320312 35.027344 18 35.027344 C 22.675781 35.027344 27.074219 33.203125 30.382812 29.898438 C 33.691406 26.589844 35.511719 22.191406 35.511719 17.511719 C 35.511719 12.835938 33.691406 8.4375 30.382812 5.128906 Z M 6.410156 5.925781 C 9.507812 2.828125 13.621094 1.125 18 1.125 C 22.378906 1.125 26.492188 2.828125 29.589844 5.925781 C 32.683594 9.019531 34.390625 13.136719 34.390625 17.511719 C 34.390625 21.152344 33.210938 24.609375 31.035156 27.453125 C 29.300781 25.03125 26.539062 23.601562 23.535156 23.601562 L 12.464844 23.601562 C 9.460938 23.601562 6.695312 25.03125 4.964844 27.453125 C 2.789062 24.609375 1.609375 21.152344 1.609375 17.511719 C 1.609375 13.136719 3.316406 9.019531 6.410156 5.925781 Z M 18 22.675781 C 22.5 22.675781 26.160156 19.015625 26.160156 14.515625 C 26.160156 10.015625 22.5 6.355469 18 6.355469 C 13.5 6.355469 9.839844 10.015625 9.839844 14.515625 C 9.839844 19.015625 13.5 22.675781 18 22.675781 Z M 18 22.675781 " fill-opacity="1" fill-rule="nonzero"/></g></svg>