<svg xmlns="http://www.w3.org/2000/svg" xmlns:xlink="http://www.w3.org/1999/xlink" width="48" zoomAndPan="magnify" viewBox="0 0 36 36.000001" height="48" preserveAspectRatio="xMidYMid meet" version="1.0"><defs><clipPath id="66f87d3f67"><path d="M 0.945312 0.582031 L 35.242188 0.582031 L 35.242188 34.148438 L 0.945312 34.148438 Z M 0.945312 0.582031 " clip-rule="nonzero"/></clipPath></defs><g clip-path="url(#66f87d3f67)"><path fill="#ffffff" d="M 18.097656 0.582031 C 8.644531 0.582031 0.984375 8.097656 0.984375 17.363281 C 0.984375 26.636719 8.644531 34.148438 18.097656 34.148438 C 27.546875 34.148438 35.207031 26.636719 35.207031 17.363281 C 35.207031 8.097656 27.546875 0.582031 18.097656 0.582031 Z M 18.097656 31.488281 C 10.144531 31.488281 3.699219 25.164062 3.699219 17.363281 C 3.699219 9.566406 10.144531 3.242188 18.097656 3.242188 C 26.046875 3.242188 32.492188 9.566406 32.492188 17.363281 C 32.492188 25.164062 26.046875 31.488281 18.097656 31.488281 Z M 18.097656 31.488281 " fill-opacity="1" fill-rule="nonzero"/></g><path fill="#ffffff" d="M 28.820312 17.777344 L 28.828125 17.769531 C 29.050781 17.539062 29.050781 17.179688 28.824219 16.960938 L 20.425781 8.722656 C 20.3125 8.609375 20.164062 8.554688 20.015625 8.554688 C 19.863281 8.554688 19.714844 8.609375 19.601562 8.722656 L 19.59375 8.734375 C 19.480469 8.839844 19.421875 8.984375 19.421875 9.136719 L 19.421875 11.417969 C 19.421875 11.566406 19.480469 11.714844 19.59375 11.820312 L 25.242188 17.363281 L 19.59375 22.910156 C 19.480469 23.015625 19.421875 23.160156 19.421875 23.3125 L 19.421875 25.59375 C 19.421875 25.742188 19.480469 25.890625 19.59375 25.996094 L 19.601562 26.007812 C 19.710938 26.113281 19.859375 26.175781 20.015625 26.175781 C 20.167969 26.175781 20.316406 26.113281 20.425781 26.007812 Z M 28.820312 17.777344 " fill-opacity="1" fill-rule="nonzero"/><path fill="#ffffff" d="M 7.574219 17.777344 L 7.570312 17.769531 C 7.34375 17.539062 7.34375 17.179688 7.570312 16.960938 L 15.96875 8.722656 C 16.082031 8.609375 16.234375 8.554688 16.378906 8.554688 C 16.53125 8.554688 16.679688 8.609375 16.792969 8.722656 L 16.804688 8.734375 C 16.914062 8.839844 16.976562 8.984375 16.976562 9.136719 L 16.976562 11.417969 C 16.976562 11.566406 16.914062 11.714844 16.804688 11.820312 L 11.152344 17.363281 L 16.804688 22.910156 C 16.914062 23.015625 16.976562 23.160156 16.976562 23.3125 L 16.976562 25.59375 C 16.976562 25.742188 16.914062 25.890625 16.804688 25.996094 L 16.792969 26.007812 C 16.683594 26.113281 16.535156 26.175781 16.378906 26.175781 C 16.226562 26.175781 16.078125 26.113281 15.96875 26.007812 Z M 7.574219 17.777344 " fill-opacity="1" fill-rule="nonzero"/></svg>